<svg width="21" height="20" viewBox="0 0 21 20" fill="none" xmlns="http://www.w3.org/2000/svg">
<path d="M18.9933 15.5861C18.6908 16.2848 18.3328 16.928 17.918 17.5193C17.3526 18.3255 16.8897 18.8835 16.5329 19.1934C15.9798 19.702 15.3872 19.9625 14.7527 19.9773C14.2972 19.9773 13.7478 19.8477 13.1083 19.5847C12.4667 19.323 11.8771 19.1934 11.338 19.1934C10.7726 19.1934 10.1662 19.323 9.51756 19.5847C8.86795 19.8477 8.34463 19.9847 7.94452 19.9983C7.33602 20.0242 6.7295 19.7563 6.12408 19.1934C5.73768 18.8563 5.25436 18.2786 4.67536 17.4601C4.05415 16.586 3.54342 15.5725 3.14331 14.417C2.71481 13.1689 2.5 11.9603 2.5 10.7902C2.5 9.44984 2.78962 8.29383 3.36973 7.32509C3.82564 6.54696 4.43216 5.93316 5.19127 5.48255C5.95038 5.03195 6.77061 4.80233 7.65391 4.78763C8.13723 4.78763 8.77104 4.93714 9.55867 5.23096C10.3441 5.52576 10.8484 5.67526 11.0695 5.67526C11.2348 5.67526 11.795 5.50045 12.7447 5.15195C13.6429 4.82874 14.4009 4.69492 15.0218 4.74764C16.7045 4.88343 17.9686 5.54675 18.8094 6.74177C17.3045 7.6536 16.5601 8.93072 16.5749 10.5691C16.5884 11.8452 17.0514 12.9071 17.9612 13.7503C18.3736 14.1417 18.8341 14.4441 19.3464 14.6589C19.2353 14.9812 19.118 15.2898 18.9933 15.5861ZM15.1342 0.400114C15.1342 1.40034 14.7687 2.33425 14.0404 3.19867C13.1614 4.22629 12.0982 4.8201 10.9453 4.7264C10.9306 4.60641 10.9221 4.48011 10.9221 4.3474C10.9221 3.38718 11.3401 2.35956 12.0824 1.51934C12.453 1.09392 12.9244 0.74019 13.4959 0.458013C14.0663 0.180046 14.6058 0.0263242 15.1132 0C15.128 0.133715 15.1342 0.267438 15.1342 0.400101V0.400114Z" fill="#6D6F9D"/>
</svg>
