<svg width="18" height="18" viewBox="0 0 18 18" fill="none" xmlns="http://www.w3.org/2000/svg">
<path d="M12.2942 10.6812C14.4549 7.63007 13.7323 3.4052 10.6812 1.24501C7.63007 -0.91517 3.4052 -0.193044 1.24501 2.85857C-0.915169 5.90967 -0.193044 10.134 2.85857 12.2942C5.0363 13.836 7.91552 13.9547 10.2125 12.5982L15.2034 17.5592C15.7422 18.1265 16.6388 18.1492 17.2061 17.6103C17.7734 17.0719 17.7961 16.1753 17.2577 15.608C17.2407 15.59 17.2242 15.5735 17.2061 15.5564L12.2942 10.6812ZM6.76548 11.1437C4.35444 11.1442 2.39969 9.19098 2.39814 6.77994C2.39763 4.36889 4.35083 2.41415 6.76239 2.41311C9.17033 2.41208 11.124 4.36218 11.1287 6.77013C11.1328 9.18169 9.18066 11.1395 6.76858 11.1437C6.76755 11.1437 6.76703 11.1437 6.76548 11.1437Z" fill="black"/>
</svg>
