<svg width="28" height="17" viewBox="0 0 28 17" fill="none" xmlns="http://www.w3.org/2000/svg">
<path d="M27.5231 12.3411C27.5231 11.9304 27.2814 11.5874 26.9375 11.4176V5.0477C27.0155 5.01824 27.064 4.94461 27.0631 4.86231C27.0631 4.78001 27.0094 4.70724 26.9341 4.68039L13.7915 0.0448309C13.6234 -0.0149436 13.4397 -0.0149436 13.2708 0.0448309L0.129956 4.68125C0.0528554 4.70811 0.000877514 4.78088 1.12172e-05 4.86318C-0.00085508 4.94547 0.0485239 5.01911 0.124758 5.04856L13.2474 10.1563C13.4302 10.2264 13.6321 10.2264 13.8149 10.1563L26.0314 5.39855V11.4167C25.6883 11.5856 25.4466 11.9313 25.4466 12.3393C25.4466 12.7655 25.7065 13.1354 26.0782 13.294C25.7065 14.0277 25.4466 15.5334 25.4466 15.963C25.4466 16.5357 25.9118 17 26.4844 17C27.0562 17 27.5214 16.5357 27.5214 15.963C27.5214 15.5334 27.2607 14.0277 26.8899 13.294C27.2624 13.1372 27.5231 12.7673 27.5231 12.3411Z" fill="#FA5C5C"/>
<path d="M4.23447 7.62061C4.23533 9.08985 4.2362 10.819 4.2362 11.0936C4.2362 13.8294 8.35371 16.0566 13.5316 16.1961C18.7086 16.0566 22.8261 13.832 22.8261 11.0936C22.8261 10.8207 22.8261 9.09071 22.8278 7.62061L13.8131 11.13C13.6303 11.201 13.4285 11.201 13.2457 11.13L4.23447 7.62061Z" fill="#FA5C5C"/>
</svg>
