<svg width="14" height="14" viewBox="0 0 14 14" fill="none" xmlns="http://www.w3.org/2000/svg">
<path d="M13.8081 4.04496C13.6427 3.90378 13.4093 3.87403 13.2137 3.96924L10.2211 5.42612L7.41314 2.18856C7.30929 2.0688 7.15854 2 7 2C6.84146 2 6.69074 2.0688 6.58687 2.18856L3.77888 5.42609L0.786275 3.96921C0.590685 3.87403 0.357334 3.90375 0.191904 4.04493C0.0264748 4.18611 -0.0395877 4.41191 0.0236584 4.62L2.10178 11.4559C2.17181 11.6863 2.38424 11.8438 2.625 11.8438H11.375C11.6157 11.8438 11.8282 11.6863 11.8982 11.456L13.9763 4.62002C14.0396 4.41194 13.9735 4.18613 13.8081 4.04496ZM10.9696 10.75H3.03032L1.43479 5.50142L3.67757 6.59329C3.90026 6.70168 4.16785 6.64693 4.33008 6.4599L7 3.38154L9.66995 6.4599C9.83216 6.64696 10.0998 6.70165 10.3224 6.59329L12.5652 5.50142L10.9696 10.75Z" fill="#464EFF"/>
<path fill-rule="evenodd" clip-rule="evenodd" d="M13.53 3.91951C13.4242 3.90447 13.314 3.92044 13.2137 3.96924L10.2211 5.42612L7.41314 2.18856C7.34094 2.10529 7.24606 2.04666 7.14167 2.01866C7.09591 2.00639 7.04832 2 7 2C6.95168 2 6.90409 2.00639 6.85833 2.01867C6.75394 2.04667 6.65908 2.1053 6.58687 2.18856L3.77888 5.42609L0.786275 3.96921C0.686007 3.92042 0.575816 3.90445 0.469938 3.91949C0.369283 3.9338 0.272528 3.97613 0.191904 4.04493C0.111285 4.11373 0.0542652 4.20263 0.0243093 4.29978C-0.00720414 4.40198 -0.00876594 4.51332 0.0236584 4.62L2.10178 11.4559C2.13436 11.5631 2.19776 11.6545 2.28049 11.7216C2.29285 11.7316 2.30564 11.7411 2.31881 11.75C2.40708 11.8097 2.51298 11.8438 2.625 11.8438H11.375C11.487 11.8438 11.5929 11.8097 11.6812 11.75C11.6943 11.7411 11.7071 11.7317 11.7194 11.7217C11.8022 11.6546 11.8656 11.5632 11.8982 11.456L13.9763 4.62002C14.0088 4.51335 14.0072 4.40203 13.9757 4.29983C13.9457 4.20267 13.8887 4.11376 13.8081 4.04496C13.7275 3.97615 13.6307 3.93381 13.53 3.91951ZM10.0061 6.64301C9.98426 6.63991 9.96264 6.63549 9.94136 6.62978C9.83857 6.60223 9.74344 6.54465 9.66995 6.4599L7 3.38154L4.33008 6.4599C4.25656 6.54466 4.16141 6.60225 4.0586 6.6298C4.03735 6.6355 4.01577 6.63991 3.99399 6.64301C3.88862 6.65802 3.77849 6.6424 3.67757 6.59329L1.43479 5.50142L3.03032 10.75H10.9696L12.5652 5.50142L10.3224 6.59329C10.2216 6.64239 10.1114 6.65801 10.0061 6.64301Z" fill="#464EFF"/>
</svg>
