<svg width="45" height="45" viewBox="0 0 45 45" fill="none" xmlns="http://www.w3.org/2000/svg">
<g clip-path="url(#clip0)">
<path d="M44.8946 21.9542C41.6133 13.7777 32.6136 8.284 22.5 8.284C12.388 8.284 3.38833 13.7776 0.105521 21.9539C-0.0352501 22.3045 -0.0351585 22.6958 0.105705 23.0463C3.39108 31.2225 12.3907 36.7159 22.5 36.7159C32.6088 36.7159 41.6084 31.2225 44.8943 23.0465C45.0352 22.6961 45.0353 22.3047 44.8946 21.9542ZM22.5 33.7851C13.8069 33.7851 6.07966 29.274 3.05669 22.4997C6.07755 15.7257 13.8048 11.2147 22.5 11.2148C31.1966 11.2148 38.9238 15.7257 41.9433 22.4995C38.9198 29.2739 31.1925 33.7851 22.5 33.7851Z" fill="#979797"/>
<path d="M22.4179 13.9507C17.7038 13.9507 13.8687 17.7859 13.8687 22.4999C13.8687 27.214 17.7038 31.0492 22.4179 31.0492C27.1319 31.0492 30.9671 27.214 30.9671 22.4999C30.9671 17.7859 27.1319 13.9507 22.4179 13.9507ZM22.4179 28.1183C19.3199 28.1183 16.7995 25.5979 16.7995 22.4999C16.7995 19.4019 19.3199 16.8815 22.4179 16.8815C25.5159 16.8815 28.0363 19.4019 28.0363 22.4999C28.0363 25.5979 25.5159 28.1183 22.4179 28.1183Z" fill="#979797"/>
</g>
<defs>
<clipPath id="clip0">
<rect width="45" height="45" fill="white"/>
</clipPath>
</defs>
</svg>
