<svg width="21" height="20" viewBox="0 0 21 20" fill="none" xmlns="http://www.w3.org/2000/svg">
<g clip-path="url(#clip0)">
<path d="M20.1056 10.2299C20.1056 9.5501 20.0505 8.86664 19.9329 8.19788H10.5004V12.0488H15.9019C15.6778 13.2908 14.9576 14.3895 13.903 15.0876V17.5863H17.1256C19.0179 15.8446 20.1056 13.2724 20.1056 10.2299Z" fill="#4889F4"/>
<path d="M10.5002 20C13.1973 20 15.4718 19.1144 17.129 17.5858L13.9065 15.0871C13.0099 15.6971 11.8524 16.0425 10.5039 16.0425C7.89494 16.0425 5.68287 14.2824 4.88917 11.916H1.56372V14.4919C3.26135 17.8688 6.71909 20 10.5002 20Z" fill="#3AAA58"/>
<path d="M4.88555 11.9164C4.46666 10.6744 4.46666 9.32956 4.88555 8.08757V5.51172H1.56378C0.145408 8.33743 0.145408 11.6666 1.56378 14.4923L4.88555 11.9164Z" fill="#FBC016"/>
<path d="M10.5002 3.95814C11.9259 3.9361 13.3039 4.47258 14.3364 5.45735L17.1915 2.60224C15.3836 0.904609 12.9842 -0.0287223 10.5002 0.000673904C6.71909 0.000673904 3.26135 2.1319 1.56372 5.51247L4.8855 8.08832C5.67552 5.71825 7.89126 3.95814 10.5002 3.95814Z" fill="#EB4F42"/>
</g>
<defs>
<clipPath id="clip0">
<rect width="20" height="20" fill="white" transform="translate(0.5)"/>
</clipPath>
</defs>
</svg>
