<svg width="37" height="28" viewBox="0 0 37 28" fill="none" xmlns="http://www.w3.org/2000/svg">
<g clip-path="url(#clip0)">
<path fill-rule="evenodd" clip-rule="evenodd" d="M11.8033 22.4674L8.30576 9.41436C8.12805 8.75113 7.44633 8.35754 6.7831 8.53525C6.11987 8.71296 5.72628 9.39468 5.90399 10.0579L9.40155 23.111C9.57926 23.7742 10.261 24.1678 10.9242 23.9901C11.5874 23.8124 11.981 23.1306 11.8033 22.4674ZM6.26546 6.6034C4.5353 7.067 3.50855 8.84539 3.97214 10.5755L4.18689 11.377C3.83208 11.2816 3.44818 11.2755 3.06778 11.3774C1.91434 11.6864 1.22984 12.872 1.5389 14.0255L3.63743 21.8573C3.9465 23.0108 5.13209 23.6953 6.28553 23.3862C6.66593 23.2843 6.99533 23.087 7.25491 22.827L7.4697 23.6286C7.93329 25.3588 9.71168 26.3855 11.4418 25.9219C13.172 25.4583 14.1988 23.6799 13.7352 21.9498L12.8748 18.7389L24.8836 15.5211L25.744 18.732C26.2076 20.4622 27.986 21.4889 29.7161 21.0253C31.4463 20.5617 32.473 18.7834 32.0094 17.0532L31.7947 16.2516C32.1495 16.347 32.5334 16.3531 32.9138 16.2512C34.0672 15.9421 34.7517 14.7565 34.4426 13.6031L32.3441 5.77125C32.035 4.61781 30.8494 3.93331 29.696 4.24237C29.3156 4.3443 28.9862 4.54156 28.7266 4.80157L28.5119 4.00014C28.0483 2.26998 26.2699 1.24323 24.5397 1.70682C22.8096 2.17042 21.7828 3.94881 22.2464 5.67897L23.0369 8.62902L11.0281 11.8468L10.2376 8.89672C9.77401 7.16656 7.99562 6.13981 6.26546 6.6034ZM24.366 13.5893L23.5545 10.5609L11.5457 13.7786L12.3572 16.807L24.366 13.5893ZM3.78403 13.4239L5.88256 21.2557C5.90574 21.3422 5.8544 21.4312 5.76789 21.4543C5.68138 21.4775 5.59246 21.4262 5.56928 21.3397L3.47075 13.5078C3.44757 13.4213 3.49891 13.3324 3.58542 13.3092C3.67193 13.2861 3.76085 13.3374 3.78403 13.4239ZM30.4123 6.28889L32.5108 14.1207C32.534 14.2072 32.4826 14.2961 32.3961 14.3193C32.3096 14.3425 32.2207 14.2912 32.1975 14.2047L30.099 6.37283C30.0758 6.28632 30.1271 6.1974 30.2136 6.17422C30.3002 6.15104 30.3891 6.20238 30.4123 6.28889ZM26.58 4.51778L30.0776 17.5708C30.2553 18.2341 29.8617 18.9158 29.1985 19.0935C28.5353 19.2712 27.8535 18.8776 27.6758 18.2144L24.1783 5.16133C24.0006 4.4981 24.3942 3.81638 25.0574 3.63867C25.7206 3.46096 26.4023 3.85455 26.58 4.51778Z" fill="white"/>
</g>
<defs>
<clipPath id="clip0">
<rect width="32" height="20" fill="white" transform="translate(0 8.28223) rotate(-15)"/>
</clipPath>
</defs>
</svg>
