<svg width="24" height="24" viewBox="0 0 24 24" fill="none" xmlns="http://www.w3.org/2000/svg">
<path fill-rule="evenodd" clip-rule="evenodd" d="M20.6038 20H3.33607C2.3306 20 1.5 19.1694 1.5 18.1639V5.83606C1.5 4.8306 2.3306 4 3.33607 4H20.6038C21.6093 4 22.4399 4.8306 22.4399 5.83606V18.1639C22.4399 19.1694 21.6093 20 20.6038 20ZM21.2596 5.79235C21.2596 5.44262 20.9973 5.18033 20.6475 5.18033H3.37978C3.03006 5.18033 2.76776 5.44262 2.76776 5.79235V15.7551L6.82787 12.4372L9.46612 14.5869L15.7077 8.72131L21.2596 13.8661V5.79235ZM9.49442 16.1318L6.72616 18.7322H20.6475C20.9973 18.7322 21.2596 18.47 21.2596 18.1202V15.4264L15.7077 10.2951L10.362 15.3168L10.3689 15.3224L9.62569 16.2405L9.49442 16.1318ZM8.60551 15.3956L6.82787 13.9235L3.46175 16.6339L2.76776 15.7664V18.1202C2.76776 18.47 3.03006 18.7322 3.37978 18.7322H5.055L8.60551 15.3956ZM12.2924 8.89615C12.2924 10.2076 11.2432 11.3005 9.88798 11.3005C8.5765 11.3005 7.48361 10.2076 7.48361 8.89615C7.48361 7.58468 8.5765 6.49178 9.88798 6.49178C11.1995 6.49178 12.2924 7.58468 12.2924 8.89615ZM11.1557 8.85243C11.1557 8.15298 10.5874 7.58468 9.88798 7.58468C9.18853 7.58468 8.62022 8.15298 8.62022 8.85243C8.62022 9.55189 9.18853 10.1202 9.88798 10.1202C10.5874 10.1202 11.1557 9.55189 11.1557 8.85243Z" fill="white" fill-opacity="0.2"/>
<path fill-rule="evenodd" clip-rule="evenodd" d="M18.4326 2.26883C18.5711 2.0299 18.4896 1.72397 18.2507 1.58553C18.0118 1.44708 17.7058 1.52854 17.5674 1.76747L16.2736 4.00027H3.33607C2.3306 4.00027 1.5 4.83087 1.5 5.83634V18.1642C1.5 19.1697 2.3306 20.0003 3.33607 20.0003H7.00255L6.06738 21.6142C5.92893 21.8531 6.01039 22.159 6.24932 22.2975C6.48825 22.4359 6.79418 22.3545 6.93262 22.1155L18.4326 2.26883ZM7.73714 18.7325L8.94474 16.6484L6.7262 18.7325H7.73714ZM10.9437 13.1986L15.5897 5.1806H3.37978C3.03006 5.1806 2.76776 5.44289 2.76776 5.79262V14.9382L5.82787 12.4374L9.00175 15.0236L10.9437 13.1986ZM8.1371 15.8361L5.05504 18.7325H3.37978C3.03006 18.7325 2.76776 18.4702 2.76776 18.1205V16.3878L5.82787 13.9238L8.1371 15.8361ZM11.2924 8.89642C11.2924 10.2079 10.2432 11.3008 8.88798 11.3008C7.5765 11.3008 6.48361 10.2079 6.48361 8.89642C6.48361 7.58495 7.5765 6.49205 8.88798 6.49205C10.1995 6.49205 11.2924 7.58495 11.2924 8.89642ZM10.1557 8.85271C10.1557 8.15325 9.58743 7.58495 8.88798 7.58495C8.18853 7.58495 7.62022 8.15325 7.62022 8.85271C7.62022 9.55216 8.18853 10.1205 8.88798 10.1205C9.58743 10.1205 10.1557 9.55216 10.1557 8.85271Z" fill="white"/>
</svg>
