<svg width="24" height="24" viewBox="0 0 24 24" fill="none" xmlns="http://www.w3.org/2000/svg">
<path fill-rule="evenodd" clip-rule="evenodd" d="M16.8382 3.26694C16.9767 3.02803 16.8953 2.72209 16.6564 2.58361C16.4175 2.44513 16.1115 2.52654 15.9731 2.76545L13.6508 6.77184C13.4652 6.75152 13.2696 6.74136 13.0641 6.74136H9.93305C9.68896 6.74136 9.49537 6.8087 9.35228 6.94337C9.21761 7.07804 9.15028 7.26742 9.15028 7.5115V14.5361L8.81473 15.115C8.82162 15.0774 8.82507 15.0385 8.82507 14.9983C8.82507 14.8889 8.79982 14.7795 8.74932 14.67L5.25211 7.18325C5.17636 7.01491 5.05853 6.88866 4.89861 6.80449C4.7471 6.7119 4.58297 6.66561 4.40622 6.66561C4.22947 6.66561 4.06113 6.7119 3.90121 6.80449C3.74971 6.88866 3.63608 7.01491 3.56033 7.18325L0.0757516 14.67C0.0252505 14.7795 0 14.8889 0 14.9983C0 15.1919 0.07996 15.356 0.23988 15.4907C0.3998 15.6253 0.576554 15.6927 0.770142 15.6927C0.913228 15.6927 1.04369 15.659 1.16153 15.5917C1.27936 15.5159 1.37195 15.4023 1.43928 15.2508L2.1968 13.559H6.64089L7.39841 15.2508C7.46575 15.4023 7.55833 15.5159 7.67617 15.5917C7.794 15.659 7.92026 15.6927 8.05492 15.6927C8.25693 15.6927 8.43368 15.6253 8.58519 15.4907C8.59337 15.4838 8.60134 15.4768 8.60911 15.4698L6.5041 19.1013C6.36561 19.3403 6.44703 19.6462 6.68594 19.7847C6.92485 19.9232 7.23078 19.8417 7.36926 19.6028L16.8382 3.26694ZM10.7411 11.7917L10.7632 11.7536H10.7411V11.7917ZM11.495 10.4911L12.9354 8.00595C12.8909 8.00458 12.8454 8.00389 12.799 8.00389H10.7411V10.4911H11.495ZM4.41885 8.54678L6.08538 12.2965H2.75231L4.41885 8.54678Z" fill="white"/>
<path fill-rule="evenodd" clip-rule="evenodd" d="M10.0951 15.6377H13.1904C14.1415 15.6377 14.8864 15.4231 15.4251 14.9938C15.9722 14.5646 16.2457 13.9712 16.2457 13.2137C16.2457 12.6666 16.1026 12.2037 15.8164 11.8249C15.5387 11.4461 15.1431 11.1852 14.6297 11.0421C15.0673 10.8822 15.4082 10.6297 15.6523 10.2846C15.9048 9.93953 16.0311 9.53131 16.0311 9.05997C16.0311 8.3277 15.7659 7.75957 15.2357 7.35556C15.1661 7.30057 15.0929 7.24926 15.0162 7.2016L14.261 8.49628C14.4058 8.68605 14.4782 8.93287 14.4782 9.23672C14.4782 9.98979 14.021 10.4026 13.1067 10.475L12.3635 11.7492H13.0136C13.5944 11.7492 14.0194 11.8586 14.2888 12.0774C14.5665 12.2962 14.7054 12.6287 14.7054 13.0748C14.7054 13.5209 14.5708 13.8492 14.3014 14.0596C14.0321 14.27 13.6028 14.3752 13.0136 14.3752H10.8316L10.0951 15.6377ZM18.5838 15.1959C19.2319 15.5662 19.9852 15.7514 20.8437 15.7514C21.3992 15.7514 21.921 15.6714 22.4092 15.5115C22.8974 15.3431 23.3309 15.1033 23.7096 14.7918C23.819 14.7077 23.8948 14.6193 23.9369 14.5267C23.979 14.4257 24 14.3121 24 14.1858C24 14.0007 23.9495 13.8449 23.8485 13.7187C23.7475 13.5924 23.6255 13.5293 23.4824 13.5293C23.3898 13.5293 23.3014 13.5462 23.2172 13.5798C23.1331 13.6135 23.0489 13.6556 22.9647 13.7061C22.5776 13.967 22.2283 14.1522 21.9168 14.2616C21.6138 14.371 21.2814 14.4257 20.9194 14.4257C20.0441 14.4257 19.3792 14.1522 18.9246 13.6051C18.4785 13.058 18.2555 12.25 18.2555 11.181C18.2555 10.1205 18.4785 9.31668 18.9246 8.76959C19.3792 8.22249 20.0441 7.94894 20.9194 7.94894C21.2982 7.94894 21.6433 8.00365 21.9547 8.11307C22.2661 8.21408 22.6028 8.39925 22.9647 8.66859C23.1415 8.78642 23.314 8.84534 23.4824 8.84534C23.6255 8.84534 23.7475 8.78221 23.8485 8.65596C23.9495 8.52971 24 8.374 24 8.18883C24 8.05416 23.979 7.94053 23.9369 7.84794C23.8948 7.75536 23.819 7.66698 23.7096 7.58281C23.3309 7.27139 22.8974 7.03572 22.4092 6.8758C21.921 6.70746 21.3992 6.62329 20.8437 6.62329C19.9852 6.62329 19.2319 6.80846 18.5838 7.1788C17.9441 7.54914 17.4517 8.07941 17.1066 8.76959C16.7615 9.45135 16.589 10.2552 16.589 11.181C16.589 12.1069 16.7615 12.9149 17.1066 13.6051C17.4517 14.2952 17.9441 14.8255 18.5838 15.1959Z" fill="white" fill-opacity="0.1"/>
</svg>
