<svg width="24" height="19" viewBox="0 0 24 19" fill="none" xmlns="http://www.w3.org/2000/svg">
<path d="M16.4056 1.01621L6.93667 17.3521" stroke="white" stroke-linecap="round" stroke-linejoin="round"/>
<path fill-rule="evenodd" clip-rule="evenodd" d="M14.6461 5.01605C14.2085 4.83287 13.6812 4.74128 13.0641 4.74128H9.93305C9.68896 4.74128 9.49537 4.80861 9.35228 4.94328C9.21761 5.07795 9.15028 5.26733 9.15028 5.51142V12.872C9.15028 13.116 9.21761 13.3054 9.35228 13.4401C9.42542 13.5089 9.51175 13.5602 9.61128 13.5938L10.7411 11.669V9.75351H11.8654L12.6064 8.49099H10.7411V6.00381H12.799C13.2832 6.00381 13.6619 6.07827 13.9352 6.22721L14.6461 5.01605ZM8.74932 12.67C8.79982 12.7794 8.82507 12.8888 8.82507 12.9982C8.82507 13.1918 8.74511 13.3559 8.58519 13.4906C8.43368 13.6253 8.25693 13.6926 8.05492 13.6926C7.92026 13.6926 7.794 13.6589 7.67617 13.5916C7.55833 13.5158 7.46575 13.4022 7.39841 13.2507L6.64089 11.5589H2.1968L1.43928 13.2507C1.37195 13.4022 1.27936 13.5158 1.16153 13.5916C1.04369 13.6589 0.913228 13.6926 0.770142 13.6926C0.576554 13.6926 0.3998 13.6253 0.23988 13.4906C0.07996 13.3559 0 13.1918 0 12.9982C0 12.8888 0.0252505 12.7794 0.0757516 12.67L3.56033 5.18316C3.63608 5.01483 3.74971 4.88857 3.90121 4.80441C4.06113 4.71182 4.22947 4.66553 4.40622 4.66553C4.58297 4.66553 4.7471 4.71182 4.89861 4.80441C5.05853 4.88857 5.17636 5.01483 5.25211 5.18316L8.74932 12.67ZM6.08538 10.2964L4.41885 6.54669L2.75231 10.2964H6.08538Z" fill="white"/>
<path fill-rule="evenodd" clip-rule="evenodd" d="M10.0951 13.638H13.1904C14.1415 13.638 14.8864 13.4234 15.4251 12.9941C15.9722 12.5648 16.2457 11.9714 16.2457 11.2139C16.2457 10.6668 16.1026 10.2039 15.8165 9.82515C15.5387 9.44639 15.1431 9.18547 14.6297 9.04238C15.0674 8.88246 15.4082 8.62996 15.6523 8.28486C15.9048 7.93977 16.0311 7.53156 16.0311 7.06021C16.0311 6.32795 15.7659 5.75981 15.2357 5.3558C15.1661 5.30081 15.0929 5.24949 15.0162 5.20183L14.261 6.4965C14.4058 6.68628 14.4782 6.9331 14.4782 7.23697C14.4782 7.99004 14.021 8.40282 13.1067 8.47529L12.3634 9.7494H13.0136C13.5944 9.7494 14.0195 9.85882 14.2888 10.0777C14.5665 10.2965 14.7054 10.629 14.7054 11.0751C14.7054 11.5211 14.5708 11.8494 14.3014 12.0598C14.0321 12.2702 13.6028 12.3755 13.0136 12.3755H10.8316L10.0951 13.638ZM18.5838 13.1961C19.2319 13.5664 19.9852 13.7516 20.8437 13.7516C21.3992 13.7516 21.921 13.6716 22.4092 13.5117C22.8974 13.3434 23.3309 13.1035 23.7096 12.7921C23.819 12.7079 23.8948 12.6195 23.9369 12.527C23.979 12.426 24 12.3123 24 12.1861C24 12.0009 23.9495 11.8452 23.8485 11.7189C23.7475 11.5927 23.6255 11.5296 23.4824 11.5296C23.3898 11.5296 23.3014 11.5464 23.2172 11.5801C23.1331 11.6137 23.0489 11.6558 22.9647 11.7063C22.5776 11.9672 22.2283 12.1524 21.9168 12.2618C21.6138 12.3712 21.2814 12.426 20.9194 12.426C20.0441 12.426 19.3792 12.1524 18.9246 11.6053C18.4786 11.0582 18.2555 10.2502 18.2555 9.18126C18.2555 8.12074 18.4786 7.31693 18.9246 6.76983C19.3792 6.22274 20.0441 5.94919 20.9194 5.94919C21.2982 5.94919 21.6433 6.0039 21.9547 6.11332C22.2661 6.21432 22.6028 6.39949 22.9647 6.66883C23.1415 6.78667 23.314 6.84558 23.4824 6.84558C23.6255 6.84558 23.7475 6.78246 23.8485 6.6562C23.9495 6.52995 24 6.37424 24 6.18907C24 6.0544 23.979 5.94077 23.9369 5.84819C23.8948 5.7556 23.819 5.66722 23.7096 5.58306C23.3309 5.27163 22.8974 5.03596 22.4092 4.87604C21.921 4.7077 21.3992 4.62354 20.8437 4.62354C19.9852 4.62354 19.2319 4.80871 18.5838 5.17905C17.9441 5.54939 17.4517 6.07965 17.1066 6.76983C16.7615 7.4516 16.589 8.25541 16.589 9.18126C16.589 10.1071 16.7615 10.9151 17.1066 11.6053C17.4517 12.2955 17.9441 12.8258 18.5838 13.1961Z" fill="white" fill-opacity="0.2"/>
</svg>
