<svg width="24" height="24" viewBox="0 0 24 24" fill="none" xmlns="http://www.w3.org/2000/svg">
<path fill-rule="evenodd" clip-rule="evenodd" d="M20.6038 20H3.33607C2.3306 20 1.5 19.1694 1.5 18.1639V5.83606C1.5 4.8306 2.3306 4 3.33607 4H20.6038C21.6093 4 22.4399 4.8306 22.4399 5.83606V18.1639C22.4399 19.1694 21.6093 20 20.6038 20ZM21.2596 5.79235C21.2596 5.44262 20.9973 5.18033 20.6475 5.18033H3.37978C3.03006 5.18033 2.76776 5.44262 2.76776 5.79235V15.7551L6.82787 12.4372L9.46612 14.5869L15.7077 8.72131L21.2596 13.8661V5.79235ZM9.49442 16.1318L6.72616 18.7322H20.6475C20.9973 18.7322 21.2596 18.47 21.2596 18.1202V15.4264L15.7077 10.2951L10.362 15.3168L10.3689 15.3224L9.62569 16.2405L9.49442 16.1318ZM8.60551 15.3956L6.82787 13.9235L3.46175 16.6339L2.76776 15.7664V18.1202C2.76776 18.47 3.03006 18.7322 3.37978 18.7322H5.055L8.60551 15.3956ZM12.2924 8.89615C12.2924 10.2076 11.2432 11.3005 9.88798 11.3005C8.5765 11.3005 7.48361 10.2076 7.48361 8.89615C7.48361 7.58468 8.5765 6.49178 9.88798 6.49178C11.1995 6.49178 12.2924 7.58468 12.2924 8.89615ZM11.1557 8.85243C11.1557 8.15298 10.5874 7.58468 9.88798 7.58468C9.18853 7.58468 8.62022 8.15298 8.62022 8.85243C8.62022 9.55189 9.18853 10.1202 9.88798 10.1202C10.5874 10.1202 11.1557 9.55189 11.1557 8.85243Z" fill="white" fill-opacity="0.2"/>
<path fill-rule="evenodd" clip-rule="evenodd" d="M17.1923 4H3.33607C2.3306 4 1.5 4.8306 1.5 5.83606V18.1639C1.5 19.1694 2.3306 20 3.33607 20H7.96154L8.69294 18.7322H6.7262L11.02 14.6987L13.001 11.265L9.00175 15.0233L5.82787 12.4372L2.76776 14.9379V5.79235C2.76776 5.44262 3.03006 5.18033 3.37978 5.18033H16.5113L17.1923 4ZM5.05504 18.7322L8.1371 15.8358L5.82787 13.9235L2.76776 16.3875V18.1202C2.76776 18.47 3.03006 18.7322 3.37978 18.7322H5.05504ZM8.88798 11.3005C10.2432 11.3005 11.2924 10.2076 11.2924 8.89615C11.2924 7.58468 10.1995 6.49178 8.88798 6.49178C7.5765 6.49178 6.48361 7.58468 6.48361 8.89615C6.48361 10.2076 7.5765 11.3005 8.88798 11.3005ZM8.88798 7.58468C9.58743 7.58468 10.1557 8.15298 10.1557 8.85243C10.1557 9.55189 9.58743 10.1202 8.88798 10.1202C8.18853 10.1202 7.62022 9.55189 7.62022 8.85243C7.62022 8.15298 8.18853 7.58468 8.88798 7.58468Z" fill="white"/>
<path d="M18 2.01797L6.49999 21.8647" stroke="white" stroke-linecap="round" stroke-linejoin="round"/>
</svg>
