<svg width="89" height="17" viewBox="0 0 89 17" fill="none" xmlns="http://www.w3.org/2000/svg">
<path d="M3.176 13.18C1.172 13.18 0.17 12.058 0.17 9.814V1.3C0.17 0.543999 0.542 0.165999 1.286 0.165999C2.042 0.165999 2.42 0.543999 2.42 1.3V9.706C2.42 10.786 2.87 11.326 3.77 11.326C3.866 11.326 3.956 11.326 4.04 11.326C4.124 11.314 4.208 11.302 4.292 11.29C4.46 11.266 4.574 11.314 4.634 11.434C4.694 11.542 4.724 11.77 4.724 12.118C4.724 12.418 4.664 12.652 4.544 12.82C4.424 12.988 4.226 13.09 3.95 13.126C3.698 13.162 3.44 13.18 3.176 13.18ZM7.03405 2.398C6.61405 2.398 6.28405 2.296 6.04405 2.092C5.81605 1.876 5.70205 1.582 5.70205 1.21C5.70205 0.825999 5.81605 0.531999 6.04405 0.327999C6.28405 0.123999 6.61405 0.0219997 7.03405 0.0219997C7.92205 0.0219997 8.36605 0.418 8.36605 1.21C8.36605 2.002 7.92205 2.398 7.03405 2.398ZM7.03405 13.126C6.67405 13.126 6.39805 13.018 6.20605 12.802C6.01405 12.586 5.91805 12.286 5.91805 11.902V5.296C5.91805 4.48 6.29005 4.072 7.03405 4.072C7.79005 4.072 8.16805 4.48 8.16805 5.296V11.902C8.16805 12.286 8.07205 12.586 7.88005 12.802C7.68805 13.018 7.40605 13.126 7.03405 13.126ZM11.6219 13.144C10.8779 13.144 10.5059 12.76 10.5059 11.992V5.188C10.5059 4.432 10.8719 4.054 11.6039 4.054C12.3359 4.054 12.7019 4.432 12.7019 5.188V5.566C13.0019 5.062 13.4039 4.678 13.9079 4.414C14.4239 4.15 14.9999 4.018 15.6359 4.018C17.7119 4.018 18.7499 5.224 18.7499 7.636V11.992C18.7499 12.76 18.3779 13.144 17.6339 13.144C16.8779 13.144 16.4999 12.76 16.4999 11.992V7.744C16.4999 7.06 16.3679 6.562 16.1039 6.25C15.8519 5.938 15.4559 5.782 14.9159 5.782C14.2559 5.782 13.7279 5.992 13.3319 6.412C12.9479 6.82 12.7559 7.366 12.7559 8.05V11.992C12.7559 12.76 12.3779 13.144 11.6219 13.144ZM25.1392 16.42C24.4912 16.42 23.8612 16.36 23.2492 16.24C22.6492 16.12 22.1032 15.934 21.6112 15.682C21.3232 15.538 21.1492 15.352 21.0892 15.124C21.0412 14.908 21.0652 14.698 21.1612 14.494C21.2572 14.29 21.4012 14.14 21.5932 14.044C21.7972 13.96 22.0132 13.972 22.2412 14.08C22.7692 14.344 23.2672 14.512 23.7352 14.584C24.2152 14.668 24.6232 14.71 24.9592 14.71C26.5672 14.71 27.3712 13.936 27.3712 12.388V11.182C27.1192 11.674 26.7292 12.064 26.2012 12.352C25.6852 12.64 25.1092 12.784 24.4732 12.784C23.6812 12.784 22.9912 12.604 22.4032 12.244C21.8152 11.872 21.3592 11.356 21.0352 10.696C20.7112 10.036 20.5492 9.268 20.5492 8.392C20.5492 7.516 20.7112 6.754 21.0352 6.106C21.3592 5.446 21.8152 4.936 22.4032 4.576C22.9912 4.204 23.6812 4.018 24.4732 4.018C25.1092 4.018 25.6852 4.156 26.2012 4.432C26.7172 4.708 27.0952 5.086 27.3352 5.566V5.188C27.3352 4.816 27.4312 4.534 27.6232 4.342C27.8272 4.15 28.1032 4.054 28.4512 4.054C29.1952 4.054 29.5672 4.432 29.5672 5.188V12.118C29.5672 13.546 29.1892 14.62 28.4332 15.34C27.6772 16.06 26.5792 16.42 25.1392 16.42ZM25.0852 11.074C25.7812 11.074 26.3332 10.834 26.7412 10.354C27.1492 9.874 27.3532 9.22 27.3532 8.392C27.3532 7.564 27.1492 6.916 26.7412 6.448C26.3332 5.968 25.7812 5.728 25.0852 5.728C24.3892 5.728 23.8372 5.968 23.4292 6.448C23.0212 6.916 22.8172 7.564 22.8172 8.392C22.8172 9.22 23.0212 9.874 23.4292 10.354C23.8372 10.834 24.3892 11.074 25.0852 11.074ZM35.4625 13.144C34.8625 13.144 34.4185 12.826 34.1305 12.19L31.2685 5.548C31.1005 5.152 31.0945 4.804 31.2505 4.504C31.4185 4.204 31.7485 4.054 32.2405 4.054C32.5165 4.054 32.7385 4.12 32.9065 4.252C33.0745 4.372 33.2245 4.606 33.3565 4.954L35.5165 10.354L37.7485 4.936C37.8805 4.6 38.0305 4.372 38.1985 4.252C38.3785 4.12 38.6185 4.054 38.9185 4.054C39.3025 4.054 39.5725 4.204 39.7285 4.504C39.8845 4.804 39.8785 5.146 39.7105 5.53L36.7945 12.19C36.5305 12.826 36.0865 13.144 35.4625 13.144ZM42.5067 2.398C42.0867 2.398 41.7567 2.296 41.5167 2.092C41.2887 1.876 41.1747 1.582 41.1747 1.21C41.1747 0.825999 41.2887 0.531999 41.5167 0.327999C41.7567 0.123999 42.0867 0.0219997 42.5067 0.0219997C43.3947 0.0219997 43.8387 0.418 43.8387 1.21C43.8387 2.002 43.3947 2.398 42.5067 2.398ZM42.5067 13.126C42.1467 13.126 41.8707 13.018 41.6787 12.802C41.4867 12.586 41.3907 12.286 41.3907 11.902V5.296C41.3907 4.48 41.7627 4.072 42.5067 4.072C43.2627 4.072 43.6407 4.48 43.6407 5.296V11.902C43.6407 12.286 43.5447 12.586 43.3527 12.802C43.1607 13.018 42.8787 13.126 42.5067 13.126Z" fill="#4799F3"/>
<path d="M50.0466 13.18C49.1226 13.18 48.3186 12.994 47.6346 12.622C46.9506 12.238 46.4226 11.698 46.0506 11.002C45.6786 10.306 45.4926 9.49 45.4926 8.554C45.4926 7.618 45.6786 6.814 46.0506 6.142C46.4226 5.458 46.9506 4.936 47.6346 4.576C48.3186 4.204 49.1226 4.018 50.0466 4.018C50.4426 4.018 50.8686 4.072 51.3246 4.18C51.7926 4.288 52.2306 4.468 52.6386 4.72C52.8786 4.864 53.0166 5.05 53.0526 5.278C53.1006 5.506 53.0706 5.716 52.9626 5.908C52.8666 6.1 52.7166 6.238 52.5126 6.322C52.3206 6.406 52.0986 6.376 51.8466 6.232C51.2946 5.92 50.7606 5.764 50.2446 5.764C49.4646 5.764 48.8586 6.01 48.4266 6.502C48.0066 6.982 47.7966 7.672 47.7966 8.572C47.7966 9.46 48.0066 10.162 48.4266 10.678C48.8586 11.182 49.4646 11.434 50.2446 11.434C50.7606 11.434 51.2946 11.284 51.8466 10.984C52.0986 10.84 52.3206 10.81 52.5126 10.894C52.7046 10.978 52.8426 11.122 52.9266 11.326C53.0106 11.518 53.0286 11.728 52.9806 11.956C52.9326 12.172 52.7946 12.352 52.5666 12.496C52.1706 12.736 51.7506 12.91 51.3066 13.018C50.8626 13.126 50.4426 13.18 50.0466 13.18ZM57.3141 13.18C56.6781 13.18 56.1081 13.06 55.6041 12.82C55.1121 12.568 54.7221 12.232 54.4341 11.812C54.1581 11.392 54.0201 10.918 54.0201 10.39C54.0201 9.742 54.1881 9.232 54.5241 8.86C54.8601 8.476 55.4061 8.2 56.1621 8.032C56.9181 7.864 57.9321 7.78 59.2041 7.78H59.8341V7.402C59.8341 6.802 59.7021 6.37 59.4381 6.106C59.1741 5.842 58.7301 5.71 58.1061 5.71C57.7581 5.71 57.3801 5.752 56.9721 5.836C56.5761 5.92 56.1561 6.064 55.7121 6.268C55.4241 6.4 55.1841 6.418 54.9921 6.322C54.8001 6.214 54.6681 6.052 54.5961 5.836C54.5361 5.608 54.5481 5.38 54.6321 5.152C54.7281 4.924 54.9141 4.756 55.1901 4.648C55.7421 4.42 56.2701 4.258 56.7741 4.162C57.2901 4.066 57.7581 4.018 58.1781 4.018C59.4621 4.018 60.4161 4.318 61.0401 4.918C61.6641 5.506 61.9761 6.424 61.9761 7.672V11.992C61.9761 12.76 61.6281 13.144 60.9321 13.144C60.2241 13.144 59.8701 12.76 59.8701 11.992V11.596C59.6661 12.088 59.3421 12.478 58.8981 12.766C58.4541 13.042 57.9261 13.18 57.3141 13.18ZM57.7821 11.632C58.3701 11.632 58.8561 11.428 59.2401 11.02C59.6361 10.612 59.8341 10.096 59.8341 9.472V9.076H59.2221C58.0941 9.076 57.3081 9.166 56.8641 9.346C56.4321 9.514 56.2161 9.826 56.2161 10.282C56.2161 10.678 56.3541 11.002 56.6301 11.254C56.9061 11.506 57.2901 11.632 57.7821 11.632ZM65.4118 13.144C64.6438 13.144 64.2598 12.76 64.2598 11.992V5.188C64.2598 4.432 64.6258 4.054 65.3578 4.054C66.0898 4.054 66.4558 4.432 66.4558 5.188V5.746C66.8878 4.714 67.8118 4.138 69.2278 4.018C69.7438 3.958 70.0318 4.252 70.0918 4.9C70.1518 5.536 69.8398 5.89 69.1558 5.962L68.7598 5.998C67.2838 6.142 66.5458 6.898 66.5458 8.266V11.992C66.5458 12.76 66.1678 13.144 65.4118 13.144ZM74.552 13.18C73.784 13.18 73.106 12.994 72.518 12.622C71.942 12.25 71.492 11.722 71.168 11.038C70.844 10.342 70.682 9.526 70.682 8.59C70.682 7.642 70.844 6.832 71.168 6.16C71.492 5.476 71.942 4.948 72.518 4.576C73.106 4.204 73.784 4.018 74.552 4.018C75.176 4.018 75.74 4.156 76.244 4.432C76.748 4.708 77.126 5.074 77.378 5.53V1.3C77.378 0.543999 77.75 0.165999 78.494 0.165999C79.25 0.165999 79.628 0.543999 79.628 1.3V11.992C79.628 12.76 79.256 13.144 78.512 13.144C77.768 13.144 77.396 12.76 77.396 11.992V11.614C77.144 12.094 76.766 12.478 76.262 12.766C75.758 13.042 75.188 13.18 74.552 13.18ZM75.182 11.47C75.854 11.47 76.394 11.23 76.802 10.75C77.21 10.258 77.414 9.538 77.414 8.59C77.414 7.63 77.21 6.916 76.802 6.448C76.394 5.968 75.854 5.728 75.182 5.728C74.51 5.728 73.97 5.968 73.562 6.448C73.154 6.916 72.95 7.63 72.95 8.59C72.95 9.538 73.154 10.258 73.562 10.75C73.97 11.23 74.51 11.47 75.182 11.47ZM85.183 13.18C84.667 13.18 84.121 13.126 83.545 13.018C82.969 12.91 82.453 12.724 81.997 12.46C81.745 12.316 81.589 12.142 81.529 11.938C81.469 11.722 81.475 11.524 81.547 11.344C81.631 11.152 81.763 11.014 81.943 10.93C82.135 10.846 82.357 10.864 82.609 10.984C83.089 11.212 83.539 11.374 83.959 11.47C84.379 11.554 84.793 11.596 85.201 11.596C85.777 11.596 86.203 11.5 86.479 11.308C86.767 11.104 86.911 10.84 86.911 10.516C86.911 10.012 86.539 9.688 85.795 9.544L83.995 9.202C82.471 8.914 81.709 8.122 81.709 6.826C81.709 6.25 81.865 5.752 82.177 5.332C82.501 4.912 82.945 4.588 83.509 4.36C84.073 4.132 84.721 4.018 85.453 4.018C86.509 4.018 87.451 4.252 88.279 4.72C88.507 4.84 88.639 5.008 88.675 5.224C88.723 5.428 88.699 5.626 88.603 5.818C88.519 5.998 88.381 6.13 88.189 6.214C87.997 6.286 87.775 6.262 87.523 6.142C87.151 5.95 86.791 5.812 86.443 5.728C86.107 5.644 85.783 5.602 85.471 5.602C84.883 5.602 84.445 5.704 84.157 5.908C83.881 6.112 83.743 6.382 83.743 6.718C83.743 7.246 84.085 7.57 84.769 7.69L86.569 8.032C87.349 8.176 87.937 8.44 88.333 8.824C88.741 9.208 88.945 9.724 88.945 10.372C88.945 11.248 88.603 11.938 87.919 12.442C87.235 12.934 86.323 13.18 85.183 13.18Z" fill="#E95C78"/>
</svg>
