<svg width="48" height="49" viewBox="0 0 48 49" fill="none" xmlns="http://www.w3.org/2000/svg">
<rect x="0.927261" y="1.0667" width="29.2681" height="29.0085" rx="2.87718" transform="matrix(0.997604 0.0691744 -0.0703434 0.997523 16.4993 14.6785)" stroke="#464EFF" stroke-width="2"/>
<rect y="14.1389" width="35.2958" height="35.2958" rx="3.87718" transform="rotate(-9 0 14.1389)" fill="#464EFF"/>
<path d="M31.4219 5.81306L31.6893 1" stroke="#464EFF" stroke-width="2" stroke-linecap="round" stroke-linejoin="bevel"/>
<path d="M36.5024 7.14994L39.9025 4.10107" stroke="#464EFF" stroke-width="2" stroke-linecap="round" stroke-linejoin="bevel"/>
<path d="M39.3242 11.1798L42.6524 10.8936" stroke="#464EFF" stroke-width="2" stroke-linecap="round" stroke-linejoin="bevel"/>
<path d="M17.5816 17.8322C17.712 17.2803 18.4392 17.1521 18.7505 17.6261L22.7518 23.7177C22.8817 23.9154 23.1092 24.0264 23.3449 24.007L30.6086 23.4096C31.1738 23.3632 31.5204 24.0152 31.1659 24.4577L26.6088 30.1456C26.461 30.3302 26.4257 30.5808 26.517 30.799L29.3297 37.5227C29.5486 38.0458 29.0356 38.577 28.5052 38.3765L21.6875 35.8002C21.4662 35.7166 21.217 35.7605 21.0376 35.9147L15.5123 40.6675C15.0824 41.0373 14.4187 40.7136 14.4454 40.1472L14.7889 32.867C14.8 32.6308 14.6812 32.4073 14.4791 32.2844L8.25149 28.4981C7.76696 28.2036 7.86973 27.4723 8.41668 27.3227L15.4467 25.3997C15.6748 25.3372 15.8506 25.1552 15.905 24.925L17.5816 17.8322Z" fill="white"/>
</svg>
