<svg width="29" height="30" viewBox="0 0 29 30" fill="none" xmlns="http://www.w3.org/2000/svg">
<rect x="0.449394" y="0.516972" width="17.9218" height="17.7649" rx="3.39253" transform="matrix(0.997604 0.0691744 -0.0703434 0.997523 9.9591 9.27152)" stroke="#393560" stroke-width="0.969294"/>
<rect y="8.93808" width="21.3245" height="21.3245" rx="3.87718" transform="rotate(-9 0 8.93808)" fill="#393560"/>
<path d="M18.984 3.90788L19.1455 1" stroke="#393560" stroke-width="0.969294" stroke-linecap="round" stroke-linejoin="bevel"/>
<path d="M22.0534 4.71565L24.1076 2.87363" stroke="#393560" stroke-width="0.969294" stroke-linecap="round" stroke-linejoin="bevel"/>
<path d="M23.7583 7.15025L25.769 6.9773" stroke="#393560" stroke-width="0.969294" stroke-linecap="round" stroke-linejoin="bevel"/>
<path d="M10.4855 11.7475C10.616 11.1957 11.3432 11.0675 11.6545 11.5414L13.6625 14.5984C13.7923 14.7961 14.0198 14.907 14.2555 14.8876L17.9007 14.5879C18.4658 14.5414 18.8125 15.1934 18.458 15.6359L16.1711 18.4903C16.0232 18.6749 15.988 18.9255 16.0793 19.1437L17.4908 22.5178C17.7096 23.041 17.1967 23.5721 16.6662 23.3717L13.2449 22.0788C13.0236 21.9952 12.7744 22.0391 12.5951 22.1934L9.82226 24.5785C9.39237 24.9483 8.72867 24.6245 8.75539 24.0581L8.92775 20.4047C8.9389 20.1685 8.82008 19.945 8.61798 19.8221L5.49278 17.9221C5.00826 17.6275 5.11103 16.8962 5.65798 16.7466L9.18584 15.7816C9.41398 15.7192 9.5898 15.5371 9.6442 15.3069L10.4855 11.7475Z" fill="white"/>
</svg>
