<svg width="54" height="59" viewBox="0 0 54 59" fill="none" xmlns="http://www.w3.org/2000/svg">
<path fill-rule="evenodd" clip-rule="evenodd" d="M46.5499 19.97L26.505 18.5801C23.6144 18.3796 21.1059 20.5602 20.9021 23.4506L19.5086 43.2115C19.3048 46.1019 21.4828 48.6074 24.3734 48.8079L44.4183 50.1978C47.3089 50.3982 49.8174 48.2176 50.0212 45.3273L51.4147 25.5663C51.6185 22.676 49.4405 20.1704 46.5499 19.97ZM26.628 16.8356C22.7739 16.5683 19.4292 19.4758 19.1575 23.3296L17.764 43.0906C17.4922 46.9444 20.3963 50.2851 24.2504 50.5524L44.2953 51.9423C48.1494 52.2095 51.4941 49.3021 51.7658 45.4483L53.1593 25.6873C53.4311 21.8335 50.527 18.4927 46.6729 18.2255L26.628 16.8356Z" fill="#007AFF"/>
<path d="M2.84308 22.6055C2.23871 18.7897 4.8421 15.2064 8.6579 14.6021L32.8398 10.772C36.6556 10.1676 40.2389 12.771 40.8433 16.5868L44.6733 40.7688C45.2777 44.5846 42.6743 48.1678 38.8585 48.7722L7.76742 53.6965L2.84308 22.6055Z" fill="#007AFF"/>
<path fill-rule="evenodd" clip-rule="evenodd" d="M36.3399 0.501309C36.8221 0.528097 37.1912 0.940695 37.1644 1.42287L36.873 6.66931C36.8462 7.15148 36.4336 7.52065 35.9514 7.49386C35.4692 7.46708 35.1001 7.05448 35.1269 6.5723L35.4183 1.32587C35.4451 0.843688 35.8577 0.474522 36.3399 0.501309Z" fill="#007AFF"/>
<path fill-rule="evenodd" clip-rule="evenodd" d="M45.8952 4.17103C46.2176 4.53057 46.1875 5.0834 45.8279 5.4058L42.1217 8.72919C41.7621 9.05159 41.2093 9.02149 40.8869 8.66194C40.5645 8.3024 40.5946 7.74958 40.9542 7.42718L44.6604 4.10378C45.0199 3.78138 45.5728 3.81149 45.8952 4.17103Z" fill="#007AFF"/>
<path fill-rule="evenodd" clip-rule="evenodd" d="M49.1128 12.0838C49.1542 12.5649 48.7977 12.9885 48.3165 13.0299L44.6887 13.342C44.2076 13.3833 43.784 13.0268 43.7426 12.5457C43.7012 12.0646 44.0577 11.641 44.5389 11.5996L48.1667 11.2875C48.6478 11.2462 49.0714 11.6027 49.1128 12.0838Z" fill="#007AFF"/>
<path d="M20.6668 20.7652C20.9022 19.7695 22.2142 19.5382 22.7759 20.3933L26.3987 25.9087C26.633 26.2654 27.0434 26.4656 27.4687 26.4306L34.0454 25.8898C35.065 25.8059 35.6905 26.9822 35.0508 27.7807L30.9248 32.9305C30.658 33.2636 30.5944 33.7158 30.7591 34.1094L33.3058 40.1971C33.7006 41.1409 32.7751 42.0993 31.8181 41.7376L25.6453 39.405C25.2461 39.2541 24.7964 39.3334 24.4729 39.6117L19.4702 43.9149C18.6946 44.582 17.4971 43.998 17.5453 42.9761L17.8563 36.3846C17.8764 35.9583 17.662 35.5551 17.2974 35.3334L11.6589 31.9053C10.7847 31.3738 10.9701 30.0545 11.9569 29.7845L18.3219 28.0434C18.7335 27.9308 19.0508 27.6023 19.1489 27.187L20.6668 20.7652Z" fill="white"/>
<path d="M3.3661 54.4209L7.06503 44.5117L13.7972 52.6697L3.3661 54.4209Z" fill="#007AFF"/>
</svg>
