<svg width="30" height="32" viewBox="0 0 30 32" fill="none" xmlns="http://www.w3.org/2000/svg">
<path fill-rule="evenodd" clip-rule="evenodd" d="M26.0291 10.742L14.8206 9.97516C13.2043 9.86457 11.8017 11.0677 11.6877 12.6623L10.9085 23.5649C10.7945 25.1596 12.0124 26.542 13.6287 26.6526L24.8371 27.4194C26.4535 27.53 27.8561 26.3269 27.9701 24.7323L28.7493 13.8297C28.8633 12.235 27.6454 10.8526 26.0291 10.742ZM14.8894 9.01269C12.7343 8.86524 10.8641 10.4694 10.7122 12.5956L9.93296 23.4982C9.781 25.6244 11.4049 27.4676 13.5599 27.6151L24.7684 28.3819C26.9234 28.5294 28.7937 26.9252 28.9456 24.799L29.7248 13.8964C29.8768 11.7702 28.2529 9.92699 26.0979 9.77954L14.8894 9.01269Z" fill="black"/>
<path d="M1.58974 12.1962C1.2518 10.091 2.70752 8.114 4.84119 7.78056L18.3629 5.66743C20.4966 5.33399 22.5002 6.77034 22.8381 8.87561L24.9798 22.2174C25.3177 24.3226 23.862 26.2996 21.7283 26.633L4.34326 29.3499L1.58974 12.1962Z" fill="black"/>
<path fill-rule="evenodd" clip-rule="evenodd" d="M20.32 0.000756059C20.5897 0.0155355 20.7961 0.243176 20.7811 0.509205L20.6181 3.40379C20.6031 3.66982 20.3724 3.8735 20.1028 3.85872C19.8332 3.84394 19.6268 3.6163 19.6418 3.35027L19.8047 0.455684C19.8197 0.189655 20.0504 -0.0140233 20.32 0.000756059Z" fill="black"/>
<path fill-rule="evenodd" clip-rule="evenodd" d="M25.6629 2.02538C25.8432 2.22375 25.8264 2.52876 25.6253 2.70663L23.5529 4.54023C23.3519 4.7181 23.0428 4.70149 22.8625 4.50313C22.6822 4.30476 22.6991 3.99975 22.9001 3.82187L24.9725 1.98828C25.1736 1.8104 25.4827 1.82701 25.6629 2.02538Z" fill="black"/>
<path fill-rule="evenodd" clip-rule="evenodd" d="M27.4622 6.39114C27.4853 6.6566 27.286 6.89031 27.0169 6.91314L24.9884 7.0853C24.7194 7.10813 24.4825 6.91144 24.4594 6.64598C24.4362 6.38052 24.6356 6.14682 24.9046 6.12398L26.9331 5.95183C27.2022 5.929 27.439 6.12568 27.4622 6.39114Z" fill="black"/>
<path d="M11.5562 11.1807C11.6878 10.6314 12.4215 10.5038 12.7355 10.9756L14.7613 14.0185C14.8923 14.2153 15.1218 14.3258 15.3596 14.3065L19.037 14.0081C19.6072 13.9618 19.9569 14.6108 19.5992 15.0514L17.2921 17.8927C17.1429 18.0764 17.1074 18.3259 17.1995 18.5431L18.6235 21.9018C18.8442 22.4225 18.3267 22.9513 17.7916 22.7517L14.34 21.4648C14.1168 21.3815 13.8653 21.4253 13.6844 21.5788L10.8871 23.953C10.4534 24.3211 9.78379 23.9989 9.81075 23.435L9.98464 19.7983C9.99588 19.5632 9.87601 19.3407 9.67212 19.2184L6.51926 17.327C6.03044 17.0338 6.13412 16.3059 6.68592 16.1569L10.245 15.1963C10.4752 15.1342 10.6525 14.953 10.7074 14.7238L11.5562 11.1807Z" fill="white"/>
<path d="M1.88221 29.7496L3.95053 24.2824L7.71492 28.7834L1.88221 29.7496Z" fill="black"/>
</svg>
