<svg width="130" height="35" viewBox="0 0 130 35" fill="none" xmlns="http://www.w3.org/2000/svg">
<path fill-rule="evenodd" clip-rule="evenodd" d="M15.9027 9.82662C13.6008 9.66586 11.6031 11.4148 11.4408 13.7331L10.6084 25.6201C10.4461 27.9383 12.1807 29.948 14.4826 30.1087L26.4549 30.9448C28.7568 31.1056 30.7545 29.3566 30.9168 27.0384L31.7491 15.1513C31.9114 12.8331 30.1769 10.8235 27.875 10.6627L15.9027 9.82662Z" fill="#42D2FF"/>
<path d="M1.69662 13.2974C1.33565 11.002 2.89058 8.84655 5.16966 8.483L19.6129 6.17906C21.8919 5.81551 24.0321 7.38156 24.3931 9.67693L26.6806 24.2234C27.0416 26.5188 25.4867 28.6743 23.2076 29.0378L9.79482 31.1774C6.94667 31.6317 4.27457 29.6903 3.82652 26.8412L1.69662 13.2974Z" fill="#E95C78"/>
<path fill-rule="evenodd" clip-rule="evenodd" d="M21.7034 0.000824328C21.9913 0.0169383 22.2118 0.265133 22.1958 0.555184L22.0218 3.71114C22.0058 4.00119 21.7593 4.22326 21.4713 4.20714C21.1833 4.19103 20.9628 3.94284 20.9788 3.65279L21.1529 0.49683C21.1689 0.20678 21.4154 -0.0152896 21.7034 0.000824328Z" fill="#EB5170"/>
<path fill-rule="evenodd" clip-rule="evenodd" d="M27.4104 2.20831C27.603 2.42459 27.585 2.75713 27.3703 2.95107L25.1566 4.95023C24.9419 5.14417 24.6117 5.12606 24.4191 4.90978C24.2266 4.6935 24.2446 4.36096 24.4593 4.16702L26.6729 2.16785C26.8877 1.97392 27.2179 1.99203 27.4104 2.20831Z" fill="#EB5170"/>
<path fill-rule="evenodd" clip-rule="evenodd" d="M29.3322 6.96819C29.3569 7.25762 29.144 7.51243 28.8566 7.53732L26.6899 7.72502C26.4025 7.74992 26.1495 7.53547 26.1248 7.24604C26.1001 6.95661 26.313 6.7018 26.6004 6.67691L28.7671 6.48921C29.0545 6.46431 29.3075 6.67876 29.3322 6.96819Z" fill="#EB5170"/>
<path fill-rule="evenodd" clip-rule="evenodd" d="M24.4786 10.3032L26.6451 23.9819C27.0056 26.2578 25.4528 28.395 23.1769 28.7554L15.861 29.9142L14.464 29.8173C12.1652 29.6579 10.4331 27.6653 10.5952 25.3667L11.4263 13.5805C11.5884 11.2819 13.5833 9.54774 15.8821 9.70714L24.4786 10.3032Z" fill="#4799F3"/>
<path d="M44.176 26.18C42.172 26.18 41.17 25.058 41.17 22.814V14.3C41.17 13.544 41.542 13.166 42.286 13.166C43.042 13.166 43.42 13.544 43.42 14.3V22.706C43.42 23.786 43.87 24.326 44.77 24.326C44.866 24.326 44.956 24.326 45.04 24.326C45.124 24.314 45.208 24.302 45.292 24.29C45.46 24.266 45.574 24.314 45.634 24.434C45.694 24.542 45.724 24.77 45.724 25.118C45.724 25.418 45.664 25.652 45.544 25.82C45.424 25.988 45.226 26.09 44.95 26.126C44.698 26.162 44.44 26.18 44.176 26.18ZM48.034 15.398C47.614 15.398 47.284 15.296 47.044 15.092C46.816 14.876 46.702 14.582 46.702 14.21C46.702 13.826 46.816 13.532 47.044 13.328C47.284 13.124 47.614 13.022 48.034 13.022C48.922 13.022 49.366 13.418 49.366 14.21C49.366 15.002 48.922 15.398 48.034 15.398ZM48.034 26.126C47.674 26.126 47.398 26.018 47.206 25.802C47.014 25.586 46.918 25.286 46.918 24.902V18.296C46.918 17.48 47.29 17.072 48.034 17.072C48.79 17.072 49.168 17.48 49.168 18.296V24.902C49.168 25.286 49.072 25.586 48.88 25.802C48.688 26.018 48.406 26.126 48.034 26.126ZM52.6219 26.144C51.8779 26.144 51.5059 25.76 51.5059 24.992V18.188C51.5059 17.432 51.8719 17.054 52.6039 17.054C53.3359 17.054 53.7019 17.432 53.7019 18.188V18.566C54.0019 18.062 54.4039 17.678 54.9079 17.414C55.4239 17.15 55.9999 17.018 56.6359 17.018C58.7119 17.018 59.7499 18.224 59.7499 20.636V24.992C59.7499 25.76 59.3779 26.144 58.6339 26.144C57.8779 26.144 57.4999 25.76 57.4999 24.992V20.744C57.4999 20.06 57.3679 19.562 57.1039 19.25C56.8519 18.938 56.4559 18.782 55.9159 18.782C55.2559 18.782 54.7279 18.992 54.3319 19.412C53.9479 19.82 53.7559 20.366 53.7559 21.05V24.992C53.7559 25.76 53.3779 26.144 52.6219 26.144ZM66.1392 29.42C65.4912 29.42 64.8612 29.36 64.2492 29.24C63.6492 29.12 63.1032 28.934 62.6112 28.682C62.3232 28.538 62.1492 28.352 62.0892 28.124C62.0412 27.908 62.0652 27.698 62.1612 27.494C62.2572 27.29 62.4012 27.14 62.5932 27.044C62.7972 26.96 63.0132 26.972 63.2412 27.08C63.7692 27.344 64.2672 27.512 64.7352 27.584C65.2152 27.668 65.6232 27.71 65.9592 27.71C67.5672 27.71 68.3712 26.936 68.3712 25.388V24.182C68.1192 24.674 67.7292 25.064 67.2012 25.352C66.6852 25.64 66.1092 25.784 65.4732 25.784C64.6812 25.784 63.9912 25.604 63.4032 25.244C62.8152 24.872 62.3592 24.356 62.0352 23.696C61.7112 23.036 61.5492 22.268 61.5492 21.392C61.5492 20.516 61.7112 19.754 62.0352 19.106C62.3592 18.446 62.8152 17.936 63.4032 17.576C63.9912 17.204 64.6812 17.018 65.4732 17.018C66.1092 17.018 66.6852 17.156 67.2012 17.432C67.7172 17.708 68.0952 18.086 68.3352 18.566V18.188C68.3352 17.816 68.4312 17.534 68.6232 17.342C68.8272 17.15 69.1032 17.054 69.4512 17.054C70.1952 17.054 70.5672 17.432 70.5672 18.188V25.118C70.5672 26.546 70.1892 27.62 69.4332 28.34C68.6772 29.06 67.5792 29.42 66.1392 29.42ZM66.0852 24.074C66.7812 24.074 67.3332 23.834 67.7412 23.354C68.1492 22.874 68.3532 22.22 68.3532 21.392C68.3532 20.564 68.1492 19.916 67.7412 19.448C67.3332 18.968 66.7812 18.728 66.0852 18.728C65.3892 18.728 64.8372 18.968 64.4292 19.448C64.0212 19.916 63.8172 20.564 63.8172 21.392C63.8172 22.22 64.0212 22.874 64.4292 23.354C64.8372 23.834 65.3892 24.074 66.0852 24.074ZM76.4625 26.144C75.8625 26.144 75.4185 25.826 75.1305 25.19L72.2685 18.548C72.1005 18.152 72.0945 17.804 72.2505 17.504C72.4185 17.204 72.7485 17.054 73.2405 17.054C73.5165 17.054 73.7385 17.12 73.9065 17.252C74.0745 17.372 74.2245 17.606 74.3565 17.954L76.5165 23.354L78.7485 17.936C78.8805 17.6 79.0305 17.372 79.1985 17.252C79.3785 17.12 79.6185 17.054 79.9185 17.054C80.3025 17.054 80.5725 17.204 80.7285 17.504C80.8845 17.804 80.8785 18.146 80.7105 18.53L77.7945 25.19C77.5305 25.826 77.0865 26.144 76.4625 26.144ZM83.5067 15.398C83.0867 15.398 82.7567 15.296 82.5167 15.092C82.2887 14.876 82.1747 14.582 82.1747 14.21C82.1747 13.826 82.2887 13.532 82.5167 13.328C82.7567 13.124 83.0867 13.022 83.5067 13.022C84.3947 13.022 84.8387 13.418 84.8387 14.21C84.8387 15.002 84.3947 15.398 83.5067 15.398ZM83.5067 26.126C83.1467 26.126 82.8707 26.018 82.6787 25.802C82.4867 25.586 82.3907 25.286 82.3907 24.902V18.296C82.3907 17.48 82.7627 17.072 83.5067 17.072C84.2627 17.072 84.6407 17.48 84.6407 18.296V24.902C84.6407 25.286 84.5447 25.586 84.3527 25.802C84.1607 26.018 83.8787 26.126 83.5067 26.126Z" fill="#4799F3"/>
<path d="M91.0466 26.18C90.1226 26.18 89.3186 25.994 88.6346 25.622C87.9506 25.238 87.4226 24.698 87.0506 24.002C86.6786 23.306 86.4926 22.49 86.4926 21.554C86.4926 20.618 86.6786 19.814 87.0506 19.142C87.4226 18.458 87.9506 17.936 88.6346 17.576C89.3186 17.204 90.1226 17.018 91.0466 17.018C91.4426 17.018 91.8686 17.072 92.3246 17.18C92.7926 17.288 93.2306 17.468 93.6386 17.72C93.8786 17.864 94.0166 18.05 94.0526 18.278C94.1006 18.506 94.0706 18.716 93.9626 18.908C93.8666 19.1 93.7166 19.238 93.5126 19.322C93.3206 19.406 93.0986 19.376 92.8466 19.232C92.2946 18.92 91.7606 18.764 91.2446 18.764C90.4646 18.764 89.8586 19.01 89.4266 19.502C89.0066 19.982 88.7966 20.672 88.7966 21.572C88.7966 22.46 89.0066 23.162 89.4266 23.678C89.8586 24.182 90.4646 24.434 91.2446 24.434C91.7606 24.434 92.2946 24.284 92.8466 23.984C93.0986 23.84 93.3206 23.81 93.5126 23.894C93.7046 23.978 93.8426 24.122 93.9266 24.326C94.0106 24.518 94.0286 24.728 93.9806 24.956C93.9326 25.172 93.7946 25.352 93.5666 25.496C93.1706 25.736 92.7506 25.91 92.3066 26.018C91.8626 26.126 91.4426 26.18 91.0466 26.18ZM98.3141 26.18C97.6781 26.18 97.1081 26.06 96.6041 25.82C96.1121 25.568 95.7221 25.232 95.4341 24.812C95.1581 24.392 95.0201 23.918 95.0201 23.39C95.0201 22.742 95.1881 22.232 95.5241 21.86C95.8601 21.476 96.4061 21.2 97.1621 21.032C97.9181 20.864 98.9321 20.78 100.204 20.78H100.834V20.402C100.834 19.802 100.702 19.37 100.438 19.106C100.174 18.842 99.7301 18.71 99.1061 18.71C98.7581 18.71 98.3801 18.752 97.9721 18.836C97.5761 18.92 97.1561 19.064 96.7121 19.268C96.4241 19.4 96.1841 19.418 95.9921 19.322C95.8001 19.214 95.6681 19.052 95.5961 18.836C95.5361 18.608 95.5481 18.38 95.6321 18.152C95.7281 17.924 95.9141 17.756 96.1901 17.648C96.7421 17.42 97.2701 17.258 97.7741 17.162C98.2901 17.066 98.7581 17.018 99.1781 17.018C100.462 17.018 101.416 17.318 102.04 17.918C102.664 18.506 102.976 19.424 102.976 20.672V24.992C102.976 25.76 102.628 26.144 101.932 26.144C101.224 26.144 100.87 25.76 100.87 24.992V24.596C100.666 25.088 100.342 25.478 99.8981 25.766C99.4541 26.042 98.9261 26.18 98.3141 26.18ZM98.7821 24.632C99.3701 24.632 99.8561 24.428 100.24 24.02C100.636 23.612 100.834 23.096 100.834 22.472V22.076H100.222C99.0941 22.076 98.3081 22.166 97.8641 22.346C97.4321 22.514 97.2161 22.826 97.2161 23.282C97.2161 23.678 97.3541 24.002 97.6301 24.254C97.9061 24.506 98.2901 24.632 98.7821 24.632ZM106.412 26.144C105.644 26.144 105.26 25.76 105.26 24.992V18.188C105.26 17.432 105.626 17.054 106.358 17.054C107.09 17.054 107.456 17.432 107.456 18.188V18.746C107.888 17.714 108.812 17.138 110.228 17.018C110.744 16.958 111.032 17.252 111.092 17.9C111.152 18.536 110.84 18.89 110.156 18.962L109.76 18.998C108.284 19.142 107.546 19.898 107.546 21.266V24.992C107.546 25.76 107.168 26.144 106.412 26.144ZM115.552 26.18C114.784 26.18 114.106 25.994 113.518 25.622C112.942 25.25 112.492 24.722 112.168 24.038C111.844 23.342 111.682 22.526 111.682 21.59C111.682 20.642 111.844 19.832 112.168 19.16C112.492 18.476 112.942 17.948 113.518 17.576C114.106 17.204 114.784 17.018 115.552 17.018C116.176 17.018 116.74 17.156 117.244 17.432C117.748 17.708 118.126 18.074 118.378 18.53V14.3C118.378 13.544 118.75 13.166 119.494 13.166C120.25 13.166 120.628 13.544 120.628 14.3V24.992C120.628 25.76 120.256 26.144 119.512 26.144C118.768 26.144 118.396 25.76 118.396 24.992V24.614C118.144 25.094 117.766 25.478 117.262 25.766C116.758 26.042 116.188 26.18 115.552 26.18ZM116.182 24.47C116.854 24.47 117.394 24.23 117.802 23.75C118.21 23.258 118.414 22.538 118.414 21.59C118.414 20.63 118.21 19.916 117.802 19.448C117.394 18.968 116.854 18.728 116.182 18.728C115.51 18.728 114.97 18.968 114.562 19.448C114.154 19.916 113.95 20.63 113.95 21.59C113.95 22.538 114.154 23.258 114.562 23.75C114.97 24.23 115.51 24.47 116.182 24.47ZM126.183 26.18C125.667 26.18 125.121 26.126 124.545 26.018C123.969 25.91 123.453 25.724 122.997 25.46C122.745 25.316 122.589 25.142 122.529 24.938C122.469 24.722 122.475 24.524 122.547 24.344C122.631 24.152 122.763 24.014 122.943 23.93C123.135 23.846 123.357 23.864 123.609 23.984C124.089 24.212 124.539 24.374 124.959 24.47C125.379 24.554 125.793 24.596 126.201 24.596C126.777 24.596 127.203 24.5 127.479 24.308C127.767 24.104 127.911 23.84 127.911 23.516C127.911 23.012 127.539 22.688 126.795 22.544L124.995 22.202C123.471 21.914 122.709 21.122 122.709 19.826C122.709 19.25 122.865 18.752 123.177 18.332C123.501 17.912 123.945 17.588 124.509 17.36C125.073 17.132 125.721 17.018 126.453 17.018C127.509 17.018 128.451 17.252 129.279 17.72C129.507 17.84 129.639 18.008 129.675 18.224C129.723 18.428 129.699 18.626 129.603 18.818C129.519 18.998 129.381 19.13 129.189 19.214C128.997 19.286 128.775 19.262 128.523 19.142C128.151 18.95 127.791 18.812 127.443 18.728C127.107 18.644 126.783 18.602 126.471 18.602C125.883 18.602 125.445 18.704 125.157 18.908C124.881 19.112 124.743 19.382 124.743 19.718C124.743 20.246 125.085 20.57 125.769 20.69L127.569 21.032C128.349 21.176 128.937 21.44 129.333 21.824C129.741 22.208 129.945 22.724 129.945 23.372C129.945 24.248 129.603 24.938 128.919 25.442C128.235 25.934 127.323 26.18 126.183 26.18Z" fill="#E95C78"/>
</svg>
