<svg width="17" height="14" viewBox="0 0 17 14" fill="none" xmlns="http://www.w3.org/2000/svg">
<path d="M8.56879 11.9864C8.56879 12.2612 8.40634 12.5108 8.15211 12.6273C8.05382 12.6728 7.94849 12.6947 7.84385 12.6947C7.67814 12.6947 7.51397 12.6391 7.38137 12.5316L3.41907 9.32266H1.30875C0.908543 9.323 0.583984 9.00562 0.583984 8.61448V5.79233C0.583984 5.40102 0.908543 5.08381 1.30875 5.08381H3.41924L7.38154 1.87488C7.59803 1.69951 7.89823 1.66212 8.15228 1.77948C8.40634 1.896 8.56896 2.14581 8.56896 2.42043L8.56879 11.9864ZM11.3541 10.8795C11.3365 10.8807 11.3195 10.8814 11.302 10.8814C11.1105 10.8814 10.926 10.8074 10.7896 10.674L10.6927 10.5789C10.4384 10.3309 10.4086 9.93813 10.6227 9.65613C11.1654 8.94091 11.4519 8.09307 11.4519 7.20366C11.4519 6.24701 11.1267 5.34972 10.5112 4.60868C10.2768 4.32701 10.2985 3.91793 10.5611 3.66142L10.6578 3.56669C10.8026 3.42519 10.9966 3.34807 11.2066 3.36031C11.4111 3.37037 11.602 3.46442 11.7317 3.61934C12.5855 4.64036 13.0364 5.88001 13.0364 7.20382C13.0364 8.43677 12.6376 9.61036 11.8828 10.5972C11.7567 10.7617 11.5639 10.8649 11.3541 10.8795ZM14.3506 13.0686C14.2196 13.22 14.03 13.3109 13.8271 13.3192C13.8171 13.3196 13.807 13.3199 13.7967 13.3199C13.6048 13.3199 13.4205 13.2458 13.2842 13.1125L13.189 13.0195C12.9229 12.7596 12.9049 12.344 13.1468 12.0627C14.3156 10.704 14.9596 8.97846 14.9596 7.20366C14.9596 5.3576 14.2702 3.58044 13.0188 2.19963C12.7651 1.91931 12.7779 1.49497 13.0479 1.23007L13.143 1.13702C13.284 0.998539 13.4672 0.922256 13.6773 0.928794C13.8768 0.934327 14.0655 1.0205 14.1981 1.16636C15.7108 2.83085 16.544 4.97517 16.544 7.20366C16.5443 9.34781 15.7654 11.4308 14.3506 13.0686Z" fill="black"/>
</svg>
